<?xml version="1.0" encoding="utf-8"?>
<!-- Generator: Adobe Illustrator 23.0.3, SVG Export Plug-In . SVG Version: 6.00 Build 0)  -->
<svg version="1.1" id="Calque_1" xmlns="http://www.w3.org/2000/svg" xmlns:xlink="http://www.w3.org/1999/xlink" x="0px" y="0px"
	 viewBox="0 0 612 277.82" style="enable-background:new 0 0 612 277.82;" xml:space="preserve">
<style type="text/css">
	.st0{fill-rule:evenodd;clip-rule:evenodd;fill:#FFFFFF;}
	.st1{fill:#2A1C60;}
	.st2{fill:#FFFFFF;}
	.st3{font-family:'MinionPro-Bold';}
	.st4{font-size:72.519px;}
	.st5{font-family:'SarySoft-Regular';}
	.st6{font-size:24.249px;}
</style>
<path class="st0" d="M143.97,185.32v-67.72c0-3.06-2.51-5.57-5.57-5.57H34.25c-3.06,0-5.57,2.51-5.57,5.57v67.72
	c0,3.06,2.51,5.57,5.57,5.57H138.4C141.46,190.89,143.97,188.39,143.97,185.32z"/>
<path class="st0" d="M154.51,185.32v-67.72c0-8.86-7.25-16.12-16.12-16.12H34.25c-8.86,0-16.12,7.25-16.12,16.12v67.72
	c0,8.86,7.25,16.12,16.12,16.12H138.4C147.26,201.44,154.51,194.19,154.51,185.32 M149.24,117.61v67.72
	c0,5.96-4.88,10.84-10.84,10.84H34.25c-5.96,0-10.84-4.88-10.84-10.84v-67.72c0-5.96,4.88-10.84,10.84-10.84H138.4
	C144.36,106.76,149.24,111.64,149.24,117.61z"/>
<g>
	<g>
		<g>
			<g>
				<path class="st1" d="M64.61,158.61c0.02-0.32,0.03-0.65,0.05-0.98c-0.31-0.2-0.65-0.42-1.02-0.64
					c-0.67-0.42-1.42-0.86-2.27-1.34c-2.02-1.16-3.77-2.24-5.24-3.23v9.17c0,3.04-0.19,5.69-0.59,7.97
					c-0.14,0.84-0.31,1.62-0.51,2.36c-0.51,1.9-1.2,3.46-2.06,4.68c-2.11,2.96-5.36,4.5-9.75,4.62v1.69c5.28,0,9.66-1.33,13.14-4
					c1.78-1.36,3.25-2.93,4.41-4.71c0.26-0.39,0.5-0.79,0.72-1.2c0.77-1.4,1.37-2.92,1.79-4.56
					C63.98,165.76,64.42,162.49,64.61,158.61z"/>
				<path class="st1" d="M77.51,156.71c-0.99-1.61-2.31-3.05-3.96-4.3c-1.65-1.25-3.89-2.71-6.73-4.36l-0.23-0.14l-1.71-1
					c0-0.55,0-1.1,0-1.66v-15.8c0-0.14,0-0.27,0-0.4c0-0.42,0.02-0.82,0.03-1.19c0.07-1.44,0.25-2.54,0.53-3.29
					c0.38-1,1.08-1.69,2.12-2.04c0.52-0.18,1.19-0.33,2.02-0.45v-2.04H51.45v2.05c0.82,0.12,1.48,0.27,2,0.44
					c1.04,0.36,1.74,1.04,2.12,2.04c0.37,0.99,0.56,2.57,0.57,4.74v19.8c0,0,0.01,0.01,0.04,0.03c1.21,0.87,2.69,1.82,4.42,2.86
					c0.02,0.01,0.04,0.02,0.05,0.03c1.52,0.95,3.09,1.9,4.13,2.43c0,0,0.01,0,0.02,0.01c0.59,0.36,1.14,0.72,1.66,1.07
					c0.88,0.59,1.67,1.16,2.36,1.71c0.01,0.01,0.02,0.01,0.03,0.02c0.61,0.48,1.15,0.95,1.61,1.4c1.69,1.66,2.54,3.67,2.54,6.05
					c0,2.8-0.86,4.92-2.57,6.34c-1.71,1.42-3.79,2.14-6.22,2.14c-0.3,0-0.58-0.01-0.87-0.02c-0.1,0.21-0.21,0.41-0.32,0.62
					c-0.12,0.21-0.23,0.42-0.35,0.61c0.63,0.05,1.3,0.07,2.02,0.07c4.15,0,7.57-1.05,10.28-3.15c2.7-2.1,4.06-5.09,4.06-8.95
					C79,160.21,78.5,158.32,77.51,156.71z"/>
				<path class="st1" d="M52.15,171.9c0.22-0.45,0.54-0.67,0.95-0.67c0.1,0,0.21,0.01,0.33,0.03c0.16-0.62,0.3-1.29,0.42-2
					c0.1-0.61,0.19-1.25,0.27-1.92c-0.8-1.53-1.4-3.27-1.78-5.21h-2.07l-0.21,11.89h1.56C51.75,173.06,51.93,172.35,52.15,171.9z"/>
				<path class="st1" d="M66.63,128.07c-0.01,0.3-0.02,0.63-0.03,0.99c0,0.09,0,0.17,0,0.25c2.09,0.49,3.78,1.57,5.06,3.22
					c1.44,1.86,2.4,4.06,2.87,6.6h2.17v-9.21l0-1.69h-1.55c-0.14,0.98-0.32,1.69-0.54,2.13c-0.23,0.45-0.54,0.67-0.95,0.67
					c-0.54,0-1.31-0.3-2.3-0.89c-1.22-0.76-2.4-1.35-3.55-1.75C67.46,128.27,67.06,128.16,66.63,128.07z"/>
			</g>
		</g>
		<g>
			<path class="st1" d="M103.6,171.8l-14.39-36.28v28.81c0,2.65,0.25,4.3,0.74,4.96c0.68,0.89,1.75,1.34,3.21,1.34h1.32v1.18H81.52
				v-1.18h1.32c1.57,0,2.69-0.55,3.35-1.65c0.4-0.66,0.6-2.2,0.6-4.64v-28.17c0-1.87-0.18-3.24-0.55-4.13
				c-0.13-0.32-0.3-0.61-0.52-0.87c-0.22-0.26-0.52-0.49-0.89-0.68c-0.38-0.19-0.83-0.34-1.36-0.45c-0.53-0.11-1.18-0.16-1.95-0.16
				v-1.18h10.55l13.51,33.73l13.29-33.73h10.55v1.18h-1.29c-1.59,0-2.72,0.55-3.38,1.65c-0.4,0.66-0.6,2.21-0.6,4.64v28.17
				c0,2.65,0.26,4.3,0.77,4.96c0.68,0.89,1.75,1.34,3.21,1.34h1.29v1.18H113.6v-1.18h1.32c1.57,0,2.69-0.55,3.35-1.65
				c0.4-0.66,0.6-2.2,0.6-4.64v-28.81l-14.37,36.28H103.6z"/>
		</g>
	</g>
</g>
<text transform="matrix(1 0 0 1 176.3809 167.5349)" class="st2 st3 st4">J-SENDMAIL</text>
<text transform="matrix(1 0 0 1 288.2305 193.114)" class="st2 st5 st6">By Intelligence Consulting</text>
</svg>
