<?xml version="1.0" encoding="utf-8"?>
<!-- Generator: Adobe Illustrator 23.0.3, SVG Export Plug-In . SVG Version: 6.00 Build 0)  -->
<svg version="1.1" id="Calque_1" xmlns="http://www.w3.org/2000/svg" xmlns:xlink="http://www.w3.org/1999/xlink" x="0px" y="0px"
	 viewBox="0 0 612 277.82" style="enable-background:new 0 0 612 277.82;" xml:space="preserve">
<style type="text/css">
	.st0{fill-rule:evenodd;clip-rule:evenodd;fill:#2A1C60;}
	.st1{fill-rule:evenodd;clip-rule:evenodd;fill:#F5972B;}
	.st2{fill:#FFFFFF;}
	.st3{fill:#F5972B;}
	.st4{font-family:'MinionPro-Bold';}
	.st5{font-size:69.3709px;}
	.st6{fill:#2A1C60;}
	.st7{font-family:'SarySoft-Regular';}
	.st8{font-size:23.1963px;}
</style>
<g>
	<path class="st0" d="M154.04,178.3v-64.78c0-2.93-2.4-5.33-5.33-5.33H49.08c-2.93,0-5.33,2.4-5.33,5.33v64.78
		c0,2.93,2.4,5.33,5.33,5.33h99.63C151.64,183.63,154.04,181.23,154.04,178.3z"/>
	<path class="st1" d="M164.13,178.3v-64.78c0-8.48-6.94-15.42-15.42-15.42H49.08c-8.48,0-15.42,6.94-15.42,15.42v64.78
		c0,8.48,6.94,15.42,15.42,15.42h99.63C157.19,193.72,164.13,186.78,164.13,178.3 M159.08,113.52v64.78
		c0,5.7-4.67,10.37-10.37,10.37H49.08c-5.7,0-10.37-4.67-10.37-10.37v-64.78c0-5.7,4.67-10.37,10.37-10.37h99.63
		C154.42,103.15,159.08,107.82,159.08,113.52z"/>
	<g>
		<g>
			<g>
				<path class="st2" d="M78.13,152.75c0.01-0.31,0.03-0.62,0.05-0.94c-0.3-0.19-0.62-0.4-0.98-0.62c-0.64-0.4-1.35-0.82-2.17-1.29
					c-1.93-1.11-3.61-2.14-5.01-3.09v8.77c0,2.9-0.19,5.45-0.56,7.63c-0.14,0.8-0.3,1.55-0.49,2.25c-0.49,1.82-1.15,3.31-1.97,4.47
					c-2.01,2.83-5.12,4.3-9.33,4.42v1.61c5.05,0,9.24-1.27,12.57-3.82c1.7-1.3,3.11-2.8,4.22-4.51c0.25-0.37,0.48-0.76,0.69-1.15
					c0.73-1.34,1.31-2.79,1.72-4.36C77.53,159.59,77.95,156.46,78.13,152.75z"/>
				<path class="st2" d="M90.47,150.93c-0.95-1.54-2.21-2.92-3.78-4.11c-1.58-1.2-3.72-2.59-6.44-4.17l-0.22-0.13l-1.63-0.95
					c0-0.52,0-1.05,0-1.59v-15.12c0-0.13,0-0.26,0-0.39c0-0.4,0.01-0.78,0.03-1.14c0.07-1.38,0.24-2.43,0.51-3.14
					c0.36-0.96,1.04-1.61,2.03-1.95c0.5-0.17,1.14-0.31,1.94-0.43v-1.95H65.54v1.96c0.78,0.11,1.42,0.25,1.91,0.42
					c0.99,0.34,1.67,0.99,2.03,1.95c0.35,0.94,0.53,2.46,0.54,4.54v18.94c0,0,0.01,0.01,0.04,0.02c1.16,0.83,2.57,1.74,4.23,2.74
					c0.02,0.01,0.03,0.02,0.05,0.03c1.45,0.91,2.95,1.82,3.95,2.33c0,0,0.01,0,0.02,0.01c0.56,0.35,1.09,0.69,1.59,1.03
					c0.84,0.56,1.6,1.11,2.26,1.64c0.01,0.01,0.02,0.01,0.03,0.02c0.58,0.46,1.1,0.91,1.54,1.34c1.62,1.59,2.43,3.52,2.43,5.79
					c0,2.68-0.82,4.7-2.46,6.06c-1.64,1.36-3.62,2.04-5.95,2.04c-0.28,0-0.56-0.01-0.83-0.02c-0.1,0.2-0.2,0.4-0.31,0.59
					c-0.11,0.2-0.22,0.4-0.34,0.58c0.6,0.05,1.24,0.07,1.93,0.07c3.97,0,7.25-1.01,9.83-3.02c2.59-2.01,3.88-4.87,3.88-8.56
					C91.89,154.28,91.42,152.47,90.47,150.93z"/>
				<path class="st2" d="M66.21,165.47c0.22-0.43,0.52-0.64,0.91-0.64c0.1,0,0.2,0.01,0.32,0.03c0.15-0.59,0.29-1.23,0.41-1.91
					c0.1-0.58,0.19-1.19,0.26-1.84c-0.77-1.46-1.34-3.12-1.71-4.98h-1.98l-0.2,11.38h1.49C65.82,166.57,66,165.89,66.21,165.47z"/>
				<path class="st2" d="M80.06,123.54c-0.01,0.29-0.02,0.6-0.02,0.94c0,0.08,0,0.16,0,0.24c2,0.47,3.61,1.5,4.84,3.08
					c1.38,1.78,2.29,3.89,2.75,6.31h2.08v-8.81l0-1.62h-1.49c-0.13,0.93-0.3,1.61-0.52,2.04c-0.22,0.43-0.52,0.64-0.91,0.64
					c-0.52,0-1.25-0.28-2.2-0.85c-1.16-0.73-2.3-1.29-3.4-1.68C80.85,123.72,80.48,123.62,80.06,123.54z"/>
			</g>
		</g>
		<g>
			<path class="st2" d="M115.43,165.37l-13.77-34.7v27.56c0,2.54,0.24,4.12,0.71,4.74c0.65,0.85,1.67,1.28,3.07,1.28h1.26v1.13H94.3
				v-1.13h1.26c1.51,0,2.57-0.53,3.21-1.58c0.38-0.63,0.58-2.11,0.58-4.44v-26.95c0-1.78-0.18-3.1-0.53-3.95
				c-0.12-0.3-0.29-0.58-0.5-0.84c-0.21-0.25-0.5-0.47-0.85-0.65c-0.36-0.18-0.79-0.32-1.3-0.43c-0.51-0.1-1.13-0.15-1.87-0.15
				v-1.12h10.09l12.93,32.27l12.72-32.27h10.09v1.12h-1.24c-1.52,0-2.6,0.53-3.23,1.58c-0.39,0.63-0.58,2.11-0.58,4.44v26.95
				c0,2.54,0.25,4.12,0.74,4.74c0.65,0.85,1.67,1.28,3.07,1.28h1.24v1.13h-15.13v-1.13h1.26c1.51,0,2.58-0.53,3.21-1.58
				c0.38-0.63,0.58-2.11,0.58-4.44v-27.56l-13.74,34.7H115.43z"/>
		</g>
	</g>
</g>
<g>
	<text transform="matrix(1 0 0 1 182.2026 161.2849)"><tspan x="0" y="0" class="st3 st4 st5">J</tspan><tspan x="25.39" y="0" class="st6 st4 st5">-SENDMAIL</tspan></text>
	<text transform="matrix(1 0 0 1 289.1978 185.7547)" class="st7 st8">By Intelligence Consulting</text>
</g>
</svg>
